<svg width="18" height="18" viewBox="0 0 18 18" fill="none" xmlns="http://www.w3.org/2000/svg">
  <path d="M2.1 13.5L5.27 4.5H7.03L10.2 13.5H8.62L7.88 11.3H4.4L3.66 13.5H2.1ZM4.82 10H7.45L6.14 6.08L4.82 10Z" fill="#C6D0DF"/>
  <path d="M13.35 13.62C12.78 13.62 12.31 13.46 11.96 13.15C11.61 12.83 11.44 12.41 11.44 11.88C11.44 11.31 11.65 10.87 12.07 10.56C12.49 10.25 13.08 10.09 13.84 10.09H15.05V9.88C15.05 9.49 14.96 9.2 14.77 9.02C14.59 8.84 14.29 8.75 13.89 8.75C13.26 8.75 12.86 9 12.69 9.5H11.67C11.76 8.99 12 8.6 12.39 8.32C12.78 8.04 13.29 7.9 13.91 7.9C14.61 7.9 15.15 8.07 15.52 8.42C15.89 8.76 16.08 9.25 16.08 9.89V13.5H15.12L15.08 12.84C14.69 13.36 14.11 13.62 13.35 13.62ZM13.56 12.78C13.99 12.78 14.35 12.65 14.63 12.4C14.91 12.14 15.05 11.81 15.05 11.4V10.86H13.94C13.46 10.86 13.1 10.94 12.86 11.1C12.62 11.26 12.5 11.5 12.5 11.82C12.5 12.11 12.59 12.34 12.78 12.52C12.97 12.69 13.23 12.78 13.56 12.78Z" fill="#C6D0DF"/>
</svg>
