<?xml version="1.0" standalone="no"?><!DOCTYPE svg PUBLIC "-//W3C//DTD SVG 1.1//EN" "http://www.w3.org/Graphics/SVG/1.1/DTD/svg11.dtd"><svg t="1782356316327" class="icon" viewBox="0 0 1024 1024" version="1.1" xmlns="http://www.w3.org/2000/svg" p-id="8359" width="32" height="32" xmlns:xlink="http://www.w3.org/1999/xlink"><path d="M512 42.666667C252.8 42.666667 42.666667 252.8 42.666667 512s210.133333 469.333333 469.333333 469.333333 469.333333-210.133333 469.333333-469.333333S771.2 42.666667 512 42.666667z m0 853.376c-211.712 0-384-172.330667-384-384.042667s172.330667-384 384-384 384.042667 172.330667 384.042667 384-172.330667 384.042667-384.042667 384.042667z" fill="#C6D0DF" p-id="8360"></path><path d="M421.930667 302.165333c-14.976-9.344-31.573333 3.626667-32.085334 21.12-0.768 23.893333-5.845333 357.077333-6.016 377.6-0.128 18.389333 16.981333 29.397333 31.701334 19.797334 22.4-14.549333 284.629333-185.344 297.642666-193.962667 16.341333-10.666667 14.634667-32.896 1.024-41.429333l-292.266666-183.125334z" fill="#C6D0DF" p-id="8361"></path></svg>