<?xml version="1.0" standalone="no"?><!DOCTYPE svg PUBLIC "-//W3C//DTD SVG 1.1//EN" "http://www.w3.org/Graphics/SVG/1.1/DTD/svg11.dtd"><svg t="1782374608531" class="icon" viewBox="0 0 1024 1024" version="1.1" xmlns="http://www.w3.org/2000/svg" p-id="10816" width="32" height="32" xmlns:xlink="http://www.w3.org/1999/xlink"><path d="M619.008 153.6l8.192 0.256A123.392 123.392 0 0 1 742.4 276.992V307.2h25.6a102.4 102.4 0 0 1 102.4 102.4v358.4a102.4 102.4 0 0 1-102.4 102.4H409.6a102.4 102.4 0 0 1-102.4-102.4v-25.6h-30.208l-8.192-0.256A123.392 123.392 0 0 1 153.6 619.008V276.9408l0.256-8.0896A123.392 123.392 0 0 1 276.992 153.6h342.1184zM768 358.4H409.6a51.2 51.2 0 0 0-50.8416 45.2096L358.4 409.6v358.4a51.2 51.2 0 0 0 45.2096 50.8416L409.6 819.2h358.4a51.2 51.2 0 0 0 50.8416-45.2096L819.2 768V409.6a51.2 51.2 0 0 0-45.2096-50.8416L768 358.4z m-148.992-153.6H276.992l-7.0144 0.3072A72.192 72.192 0 0 0 204.8 276.992v342.1184l0.3072 6.9632A72.192 72.192 0 0 0 276.992 691.2H307.2V409.6a102.4 102.4 0 0 1 102.4-102.4h281.6v-30.208l-0.3072-7.0144A72.192 72.192 0 0 0 619.008 204.8z m68.9152 435.2a25.6 25.6 0 0 1 4.608 50.7904l-4.608 0.4096h-204.8a25.6 25.6 0 0 1-4.608-50.7904l4.608-0.4096h204.8z m0-147.0464a25.6 25.6 0 0 1 4.608 50.7904l-4.608 0.4096h-204.8a25.6 25.6 0 0 1-4.608-50.7904l4.608-0.4096h204.8z" fill="#C6D0DF" p-id="10817"></path></svg>