<svg xmlns="http://www.w3.org/2000/svg" width="20" height="20" viewBox="0 0 20 20" fill="none" aria-hidden="true">
  <path d="M8.94 3.1H11.06L11.48 5.02C11.83 5.15 12.16 5.34 12.45 5.58L14.33 4.98L15.39 6.82L13.93 8.13C13.96 8.32 13.98 8.66 13.98 10C13.98 11.34 13.96 11.68 13.93 11.87L15.39 13.18L14.33 15.02L12.45 14.42C12.16 14.66 11.83 14.85 11.48 14.98L11.06 16.9H8.94L8.52 14.98C8.17 14.85 7.84 14.66 7.55 14.42L5.67 15.02L4.61 13.18L6.07 11.87C6.04 11.68 6.02 11.34 6.02 10C6.02 8.66 6.04 8.32 6.07 8.13L4.61 6.82L5.67 4.98L7.55 5.58C7.84 5.34 8.17 5.15 8.52 5.02L8.94 3.1Z" stroke="#B8C2D1" stroke-width="1.35" stroke-linejoin="round"/>
  <circle cx="10" cy="10" r="2.2" stroke="#B8C2D1" stroke-width="1.35"/>
</svg>
